<?xml version="1.0" encoding="iso-8859-1"?>
<!-- Generator: Adobe Illustrator 16.0.0, SVG Export Plug-In . SVG Version: 6.00 Build 0)  -->
<!DOCTYPE svg PUBLIC "-//W3C//DTD SVG 1.1//EN" "http://www.w3.org/Graphics/SVG/1.1/DTD/svg11.dtd">
<svg version="1.1" id="Capa_1" xmlns="http://www.w3.org/2000/svg" xmlns:xlink="http://www.w3.org/1999/xlink" x="0px" y="0px"
	 width="37.785px" height="37.785px" viewBox="0 0 37.785 37.785" style="enable-background:new 0 0 37.785 37.785;"
	 xml:space="preserve">
<g>
	<g>
		<path d="M18.894,12.087c-6.715,0-12.178,5.463-12.178,12.178c0,6.714,5.463,12.177,12.178,12.177s12.178-5.463,12.178-12.177
			S25.609,12.087,18.894,12.087z M18.894,34.293c-5.528,0-10.026-4.499-10.026-10.027c0-5.53,4.498-10.028,10.026-10.028
			c5.529,0,10.027,4.499,10.027,10.028C28.922,29.794,24.424,34.293,18.894,34.293z"/>
		<path d="M23.893,16.841c-0.604-0.41-1.271-0.738-1.972-0.991c-1.056,4.408-5.018,7.699-9.742,7.699
			c-0.752,0-1.479-0.09-2.186-0.247c-0.033,0.315-0.055,0.638-0.055,0.963c0,0.423,0.039,0.834,0.098,1.238
			c0.695,0.125,1.41,0.192,2.143,0.192C17.742,25.697,22.443,21.945,23.893,16.841z"/>
		<path d="M2.15,13.521c0-5.53,4.498-10.028,10.028-10.028c4.793,0,8.809,3.383,9.791,7.886c0.803,0.191,1.57,0.454,2.311,0.783
			C23.6,6.085,18.433,1.345,12.178,1.345C5.463,1.345,0,6.808,0,13.522c0,4.314,2.258,8.109,5.652,10.273
			c0.028-0.827,0.135-1.637,0.311-2.419C3.646,19.537,2.15,16.703,2.15,13.521z"/>
		<path d="M15.818,11.377c0.373-1.709,1.186-3.255,2.311-4.518C17.592,6.38,17,5.965,16.363,5.626
			c-1.541,1.805-2.574,4.055-2.853,6.535C14.246,11.832,15.017,11.569,15.818,11.377z"/>
		<path d="M25.609,1.344c-2.059,0-3.988,0.521-5.689,1.424c0.635,0.458,1.229,0.97,1.771,1.531c1.205-0.515,2.525-0.808,3.918-0.808
			c5.527,0,10.025,4.499,10.025,10.028c0,3.182-1.492,6.016-3.812,7.854c0.177,0.783,0.281,1.592,0.312,2.419
			c3.396-2.164,5.651-5.958,5.651-10.273C37.787,6.807,32.324,1.344,25.609,1.344z"/>
		<path d="M18.142,20.195c-1.088-1.219-1.885-2.706-2.277-4.345c-0.696,0.253-1.36,0.581-1.969,0.99
			c0.486,1.715,1.348,3.271,2.479,4.591C17.012,21.091,17.605,20.676,18.142,20.195z"/>
		<path d="M21.678,22.736c-0.549,0.563-1.146,1.072-1.785,1.529c1.705,0.912,3.65,1.432,5.718,1.432c0.73,0,1.443-0.067,2.143-0.192
			c0.061-0.405,0.1-0.815,0.1-1.237c0-0.326-0.021-0.648-0.057-0.964c-0.702,0.156-1.434,0.247-2.186,0.247
			C24.213,23.549,22.887,23.254,21.678,22.736z"/>
	</g>
</g>
<g>
</g>
<g>
</g>
<g>
</g>
<g>
</g>
<g>
</g>
<g>
</g>
<g>
</g>
<g>
</g>
<g>
</g>
<g>
</g>
<g>
</g>
<g>
</g>
<g>
</g>
<g>
</g>
<g>
</g>
</svg>
